/* XPM */
static const char* winmine_ico[] = {
/* columns rows colors chars-per-pixel */
"32 32 5 1",
"  c #000000",
". c #808080",
"X c #C0C0C0",
"o c #FFFFFF",
"O c None",
/* pixels */
"OOOOOOOOOOOOOOOOOOOOOOOOOOOOOOOO",
"OOOOOOOOOOOOOOOOOOOOOOOOOOOOOOOO",
"OOOOOOOOOOOOOOO  OOOOOOOOOOOOOOO",
"OOOOOOOOOOOOOO o  OOOOOOOOOOOOOO",
"OOOOOOOOOOOOOO o  OOOOOOOOOOOOOO",
"OOOOOOOOOOOO        OOOOOOOOOOOO",
"OOOOOO  OO  oooooXXX  OO  OOOOOO",
"OOOOO  o  ooooXooXooXX  o  OOOOO",
"OOOOO    ooXXX.oXX.XXX     OOOOO",
"OOOOOO  ooXoo.XXXXXX.XX   OOOOOO",
"OOOOOO ooooXXXXXXXXX..X   OOOOOO",
"OOOOOO oXXXXX..XX..X .X   OOOOOO",
"OOOOO ooX.XX........X. .   OOOOO",
"OOOOO oXooX.XX   .......   OOOOO",
"OOO   XXo.X.. oo. .... .     OOO",
"OO oo oo.X... oo.  . ..    .. OO",
"OO    XooXX.. ..    . .       OO",
"OOO   XoXXX...      .. .     OOO",
"OOOOO  XXX.....      .     OOOOO",
"OOOOO  .XX. . .     . .    OOOOO",
"OOOOOO  . .. . ..  .      OOOOOO",
"OOOOOO   .  . . ..  .     OOOOOO",
"OOOOOOO    .  .          OOOOOOO",
"OOOOOOO                  OOOOOOO",
"OOOOOO .                . OOOOOO",
"OOOOOO                    OOOOOO",
"OOOOOOO  OOO        OOO  OOOOOOO",
"OOOOOOOOOOOOOO  . OOOOOOOOOOOOOO",
"OOOOOOOOOOOOOO  . OOOOOOOOOOOOOO",
"OOOOOOOOOOOOOOO  OOOOOOOOOOOOOOO",
"OOOOOOOOOOOOOOOOOOOOOOOOOOOOOOOO",
"OOOOOOOOOOOOOOOOOOOOOOOOOOOOOOOO"
};
